<svg width="23" height="26" viewBox="0 0 23 26" fill="none" xmlns="http://www.w3.org/2000/svg">
<path d="M5.46669 7.66667H17.3146C18.7955 7.66667 20.0297 9.33334 20.2765 11L21.7575 21C22.0045 22.6675 20.2765 24.3333 18.7955 24.3333H3.9857C2.50472 24.3333 0.776775 22.6675 1.02374 21L2.50472 11C2.75155 9.33334 3.9857 7.66667 5.46669 7.66667Z" stroke="white" stroke-linecap="round" stroke-linejoin="round"/>
<path d="M6.94727 11V5.98064" stroke="white" stroke-linecap="round" stroke-linejoin="round"/>
<path d="M15.834 6V11" stroke="white" stroke-linecap="round" stroke-linejoin="round"/>
<path d="M1.30957 19.2623H21.4713" stroke="white" stroke-linecap="round" stroke-linejoin="round"/>
<path d="M15.8332 6C15.8332 4.33333 14.9724 2.55698 13.6031 1.66728C12.2338 0.777574 10.5467 0.777574 9.17735 1.66728C7.80802 2.55698 6.94727 4.33333 6.94727 6" stroke="white" stroke-linecap="round" stroke-linejoin="round"/>
<path d="M8.39746 24.3646V25.9691H1.05469V24.3646H8.39746Z" stroke="white" stroke-width="0.0625"/>
</svg>
