<svg width="15" height="13" viewBox="0 0 15 13" fill="none" xmlns="http://www.w3.org/2000/svg">
<path fill-rule="evenodd" clip-rule="evenodd" d="M5.74853 4.14069L7.25437 1.73152L8.7602 4.14069C8.81171 4.22315 8.87965 4.29413 8.95979 4.3492C9.03992 4.40427 9.13054 4.44225 9.22599 4.46077C9.32144 4.4793 9.41968 4.47798 9.5146 4.45689C9.60952 4.4358 9.69908 4.39539 9.7777 4.33819L13.011 1.98652L11.7694 8.50819C11.7603 8.5557 11.7349 8.59857 11.6977 8.62944C11.6604 8.66031 11.6136 8.67725 11.5652 8.67735H2.94437C2.89584 8.67744 2.84881 8.66059 2.81139 8.62971C2.77396 8.59882 2.74849 8.55584 2.73937 8.50819L1.4977 1.98569L4.73103 4.33735C4.80963 4.39442 4.89913 4.43471 4.99396 4.45573C5.08879 4.47674 5.18693 4.47803 5.28228 4.4595C5.37763 4.44098 5.46815 4.40305 5.54822 4.34806C5.62828 4.29307 5.69618 4.2222 5.7477 4.13985M7.85437 0.333186C7.79071 0.231236 7.70216 0.14716 7.59705 0.0888717C7.49194 0.0305834 7.37372 0 7.25353 0C7.13334 0 7.01513 0.0305834 6.91002 0.0888717C6.80491 0.14716 6.71635 0.231236 6.6527 0.333186L4.99603 2.98569L1.12603 0.170686C0.606866 -0.206814 -0.1073 0.245686 0.0135333 0.875686L1.51103 8.74235C1.57466 9.07583 1.75265 9.37666 2.0143 9.59297C2.27595 9.80929 2.60487 9.92755 2.94437 9.92735H11.5652C11.9047 9.92732 12.2335 9.80886 12.495 9.59239C12.7565 9.37592 12.9343 9.07501 12.9977 8.74152L14.4952 0.875686C14.616 0.245686 13.9027 -0.207647 13.3835 0.170686L9.5127 2.98569L7.85437 0.333186ZM2.25437 11.1774C2.08861 11.1774 1.92963 11.2432 1.81242 11.3604C1.69521 11.4776 1.62937 11.6366 1.62937 11.8024C1.62937 11.9681 1.69521 12.1271 1.81242 12.2443C1.92963 12.3615 2.08861 12.4274 2.25437 12.4274H12.2544C12.4201 12.4274 12.5791 12.3615 12.6963 12.2443C12.8135 12.1271 12.8794 11.9681 12.8794 11.8024C12.8794 11.6366 12.8135 11.4776 12.6963 11.3604C12.5791 11.2432 12.4201 11.1774 12.2544 11.1774H2.25437Z" fill="#FCBC30"/>
</svg>
