<svg width="24" height="23" viewBox="0 0 24 23" fill="none" xmlns="http://www.w3.org/2000/svg">
<path d="M22.5 11.5C22.5033 13.5846 21.8833 15.6225 20.7197 17.352C19.76 18.7835 18.4623 19.9565 16.9415 20.7672C15.4206 21.5779 13.7234 22.0013 12 22C10.2766 22.0013 8.57937 21.5779 7.05852 20.7672C5.53766 19.9565 4.24001 18.7835 3.28033 17.352C2.36652 15.9898 1.78455 14.4325 1.58109 12.8049C1.37763 11.1772 1.55833 9.52455 2.10871 7.97934C2.65908 6.43412 3.56383 5.03935 4.75041 3.90682C5.937 2.77429 7.37241 1.93552 8.94159 1.45774C10.5108 0.979953 12.1701 0.876451 13.7865 1.15553C15.4028 1.43461 16.9314 2.0885 18.2495 3.0648C19.5676 4.04109 20.6387 5.31262 21.3768 6.77746C22.1149 8.2423 22.4996 9.8597 22.5 11.5Z" stroke="white" stroke-width="1.5"/>
<path d="M13.4584 8.00001C13.4584 8.80501 12.8051 9.45834 12.0001 9.45834V11.2083C12.851 11.2083 13.667 10.8703 14.2687 10.2686C14.8704 9.66696 15.2084 8.85091 15.2084 8.00001H13.4584ZM12.0001 9.45834C11.1951 9.45834 10.5418 8.80501 10.5418 8.00001H8.79176C8.79176 8.85091 9.12978 9.66696 9.73146 10.2686C10.3331 10.8703 11.1492 11.2083 12.0001 11.2083V9.45834ZM10.5418 8.00001C10.5418 7.195 11.1951 6.54167 12.0001 6.54167V4.79167C11.1492 4.79167 10.3331 5.12969 9.73146 5.73137C9.12978 6.33305 8.79176 7.1491 8.79176 8.00001H10.5418ZM12.0001 6.54167C12.8051 6.54167 13.4584 7.195 13.4584 8.00001H15.2084C15.2084 7.1491 14.8704 6.33305 14.2687 5.73137C13.667 5.12969 12.851 4.79167 12.0001 4.79167V6.54167ZM4.02709 18.332L3.18826 18.0823L3.05176 18.5397L3.36326 18.9013L4.02709 18.332ZM19.9731 18.332L20.6381 18.9025L20.9484 18.5408L20.8119 18.0823L19.9731 18.332ZM8.50009 15.875H15.5001V14.125H8.50009V15.875ZM8.50009 14.125C7.30661 14.1247 6.14492 14.5097 5.18785 15.2227C4.23078 15.9357 3.52947 16.9387 3.18826 18.0823L4.86592 18.5817C5.09955 17.7994 5.57943 17.1134 6.2342 16.6257C6.88898 16.1381 7.68367 15.8748 8.50009 15.875V14.125ZM12.0001 21.125C10.6111 21.1266 9.23826 20.8268 7.97636 20.2463C6.71446 19.6658 5.59353 18.8184 4.69092 17.7627L3.36326 18.9013C4.43013 20.1485 5.75474 21.1506 7.2458 21.8364C8.73685 22.5222 10.3589 22.8766 12.0001 22.875V21.125ZM15.5001 15.875C17.2151 15.875 18.6676 17.016 19.1343 18.5817L20.8119 18.0823C20.4707 16.9387 19.7694 15.9357 18.8123 15.2227C17.8553 14.5097 16.6936 14.1247 15.5001 14.125V15.875ZM19.3093 17.7627C18.4067 18.8184 17.2857 19.6658 16.0238 20.2463C14.7619 20.8268 13.3891 21.1266 12.0001 21.125V22.875C13.6413 22.8766 15.2633 22.5222 16.7544 21.8364C18.2454 21.1506 19.5712 20.1496 20.6381 18.9025L19.3093 17.7627Z" fill="white"/>
</svg>
